<svg width="83" height="31" viewBox="0 0 83 31" fill="none" xmlns="http://www.w3.org/2000/svg">
<path d="M22.9888 13.4087C22.5607 13.8395 22.2328 14.3593 22.0286 14.9311C21.8244 15.5031 21.7488 16.113 21.8072 16.7174L21.7869 16.6971C21.8469 17.4086 21.7509 18.1246 21.5057 18.7953C21.2604 19.4658 20.8719 20.0748 20.367 20.5797C19.8621 21.0846 19.2531 21.4733 18.5824 21.7184C17.9119 21.9637 17.1958 22.0597 16.4844 21.9996L16.5047 22.0199C15.6536 21.9407 14.7989 22.1259 14.0568 22.5503C13.3149 22.9747 12.7218 23.6175 12.3586 24.3913C11.9954 25.1651 11.8797 26.032 12.0272 26.874C12.1748 27.716 12.5785 28.4919 13.1831 29.096C13.7878 29.7001 14.5641 30.1031 15.4061 30.2498C16.2483 30.3967 17.115 30.2801 17.8885 29.9162C18.662 29.5523 19.3043 28.9588 19.728 28.2164C20.1517 27.474 20.3362 26.6191 20.2562 25.768L20.2777 25.7884C20.2176 25.0769 20.3135 24.3608 20.5587 23.6902C20.804 23.0196 21.1927 22.4106 21.6975 21.9057C22.2024 21.4009 22.8114 21.0122 23.482 20.767C24.1526 20.5218 24.8686 20.4258 25.5801 20.4859L25.5587 20.4655C26.2539 20.528 26.9537 20.414 27.5932 20.1341C28.2325 19.8542 28.791 19.4174 29.2167 18.8642C29.6423 18.311 29.9215 17.6592 30.0282 16.9694C30.1349 16.2796 30.0658 15.574 29.8272 14.9179C29.5886 14.262 29.1883 13.6768 28.6634 13.2167C28.1384 12.7566 27.5058 12.4365 26.8242 12.286C26.1426 12.1355 25.434 12.1595 24.7641 12.3557C24.0942 12.552 23.4848 12.9142 22.9922 13.4087H22.9888Z" fill="#F5F5F5"/>
<path d="M14.6563 19.356L14.6349 19.3357C15.2396 19.3966 15.8502 19.3223 16.4228 19.1183C16.9953 18.9143 17.5154 18.5857 17.9454 18.1561C18.3752 17.7265 18.7044 17.2067 18.9087 16.6343C19.1132 16.0619 19.1878 15.4513 19.1274 14.8465L19.1489 14.8669C19.0888 14.1553 19.1848 13.4393 19.4299 12.7687C19.6752 12.0981 20.0639 11.4892 20.5687 10.9842C21.0736 10.4794 21.6826 10.0907 22.3532 9.84554C23.0238 9.60025 23.7398 9.50431 24.4513 9.56438L24.4299 9.54404C25.2811 9.62402 26.1361 9.43939 26.8785 9.01549C27.621 8.59158 28.2145 7.94897 28.5782 7.17532C28.942 6.40168 29.0582 5.53466 28.9111 4.69251C28.764 3.85036 28.3608 3.0741 27.7562 2.46959C27.1517 1.86509 26.3754 1.46177 25.5333 1.31467C24.6912 1.16756 23.8242 1.28381 23.0505 1.64757C22.2768 2.01132 21.6343 2.60488 21.2103 3.34729C20.7864 4.08968 20.6018 4.94478 20.6818 5.79593L20.6614 5.77447C20.7216 6.48601 20.6259 7.20213 20.3807 7.87281C20.1356 8.54349 19.7469 9.15258 19.2421 9.65757C18.7371 10.1624 18.128 10.5511 17.4574 10.7962C16.7866 11.0414 16.0705 11.1372 15.359 11.0769L15.3793 11.0984C14.7746 11.0375 14.1638 11.1117 13.5913 11.3158C13.0188 11.5197 12.4987 11.8484 12.0688 12.278C11.6389 12.7076 11.3098 13.2274 11.1053 13.7998C10.901 14.3722 10.8263 14.9828 10.8868 15.5876L10.8664 15.5672C10.9263 16.2787 10.8302 16.9946 10.5849 17.6652C10.3396 18.3356 9.95097 18.9446 9.44613 19.4494C8.94126 19.9543 8.33234 20.3429 7.66184 20.5882C6.99134 20.8334 6.27539 20.9296 5.56394 20.8697L5.58427 20.89C4.73312 20.8101 3.87802 20.9946 3.13562 21.4186C2.39322 21.8425 1.79966 22.4851 1.43591 23.2588C1.07214 24.0324 0.955883 24.8994 1.10299 25.7416C1.25011 26.5837 1.65343 27.36 2.25793 27.9645C2.86244 28.569 3.6387 28.9723 4.48085 29.1194C5.323 29.2665 6.19002 29.1502 6.96367 28.7865C7.73731 28.4228 8.37992 27.8292 8.80383 27.0869C9.22778 26.3443 9.41236 25.4893 9.33238 24.6382L9.35384 24.6585C9.29375 23.9469 9.38977 23.231 9.63501 22.5603C9.88014 21.8898 10.2688 21.2808 10.7737 20.7758C11.2786 20.271 11.8876 19.8823 12.5582 19.6372C13.2288 19.3919 13.9448 19.2959 14.6563 19.356Z" fill="#F5F5F5"/>
<path d="M7.08266 17.0888C7.51082 16.6582 7.83861 16.1384 8.04267 15.5664C8.24673 14.9945 8.322 14.3845 8.26313 13.7801L8.28458 13.8005C8.22448 13.0888 8.32046 12.3725 8.56582 11.7017C8.81119 11.031 9.20004 10.4219 9.70521 9.91693C10.2104 9.412 10.8196 9.02342 11.4905 8.77835C12.1614 8.53327 12.8777 8.43759 13.5893 8.498L13.5679 8.47767C14.4187 8.55738 15.2735 8.3727 16.0156 7.94882C16.7576 7.52495 17.3508 6.88249 17.7144 6.10909C18.0779 5.33568 18.194 4.46897 18.047 3.62714C17.8999 2.7853 17.4966 2.00934 16.8924 1.40505C16.2881 0.80077 15.5121 0.397583 14.6703 0.250482C13.8285 0.103371 12.9617 0.219519 12.1884 0.583057C11.4149 0.946594 10.7725 1.53984 10.3487 2.2819C9.9247 3.02395 9.74001 3.8787 9.81976 4.72955L9.79942 4.70922C9.85952 5.42072 9.7635 6.13676 9.51826 6.80735C9.27302 7.47794 8.88445 8.08694 8.37955 8.59184C7.87466 9.09674 7.26565 9.48536 6.59506 9.73054C5.92447 9.97578 5.20844 10.0718 4.49694 10.0117L4.51727 10.032C3.82207 9.96968 3.12236 10.0839 2.48302 10.3639C1.84367 10.644 1.28535 11.0809 0.859805 11.6342C0.434262 12.1874 0.155266 12.8392 0.0486519 13.5289C-0.0579512 14.2188 0.0112838 14.9243 0.249941 15.5802C0.488598 16.2362 0.888972 16.8212 1.41395 17.2812C1.93892 17.7413 2.57151 18.0613 3.25311 18.2118C3.93469 18.3622 4.64323 18.3381 5.31307 18.1419C5.98289 17.9455 6.59233 17.5834 7.08491 17.0888H7.08266Z" fill="#F5F5F5"/>
<path d="M43.2702 11.4167V13.9981H35.846V11.4167H43.2702ZM37.5338 8.48235H40.9425V19.9552C40.9425 20.367 41.0345 20.6722 41.2183 20.8708C41.4022 21.062 41.6963 21.1576 42.1008 21.1576C42.2332 21.1576 42.3803 21.1466 42.5421 21.1245C42.7039 21.1024 42.8436 21.0767 42.9613 21.0473L43.5018 23.6066C43.1268 23.7169 42.7627 23.7978 42.4097 23.8493C42.0641 23.9008 41.7221 23.9265 41.3838 23.9265C40.1556 23.9265 39.2069 23.6213 38.5377 23.0109C37.8684 22.3931 37.5338 21.5253 37.5338 20.4074V8.48235ZM44.7594 23.75V11.4167H48.1682V23.75H44.7594ZM46.4583 9.83923C45.9508 9.83923 45.5169 9.67008 45.1566 9.33178C44.7962 8.99348 44.616 8.58531 44.616 8.10728C44.616 7.62924 44.7962 7.22475 45.1566 6.89381C45.5169 6.55551 45.9508 6.38636 46.4583 6.38636C46.9731 6.38636 47.4107 6.55551 47.771 6.89381C48.1314 7.22475 48.3116 7.62924 48.3116 8.10728C48.3116 8.58531 48.1314 8.99348 47.771 9.33178C47.4107 9.67008 46.9731 9.83923 46.4583 9.83923ZM53.695 23.9817C52.9154 23.9817 52.2131 23.8456 51.588 23.5735C50.9702 23.294 50.4848 22.8822 50.1318 22.338C49.7788 21.7937 49.6023 21.1171 49.6023 20.3082C49.6023 19.6168 49.7273 19.0432 49.9774 18.5872C50.2274 18.1239 50.5694 17.7488 51.0033 17.462C51.4372 17.1752 51.9299 16.9582 52.4815 16.8112C53.0331 16.6641 53.6178 16.5611 54.2355 16.5023C54.9489 16.4361 55.5225 16.3699 55.9565 16.3037C56.3904 16.2375 56.7066 16.1382 56.9052 16.0059C57.1111 15.8661 57.214 15.6676 57.214 15.4102V15.355C57.214 14.8475 57.0523 14.4541 56.7287 14.1746C56.4124 13.8952 55.9638 13.7554 55.3828 13.7554C54.7724 13.7554 54.2833 13.8915 53.9156 14.1636C53.5553 14.4283 53.3162 14.7666 53.1986 15.1785L50.0325 14.9248C50.1943 14.1746 50.5105 13.5274 50.9812 12.9832C51.4519 12.4316 52.0586 12.0088 52.8014 11.7146C53.5516 11.4131 54.4194 11.2623 55.4049 11.2623C56.0888 11.2623 56.7434 11.3432 57.3685 11.505C57.9936 11.6668 58.5489 11.9168 59.0343 12.2551C59.527 12.5861 59.9168 13.0163 60.2036 13.5458C60.4904 14.0753 60.6338 14.7041 60.6338 15.4322V23.75H57.3795V22.0291H57.2913C57.0927 22.4189 56.8279 22.7608 56.497 23.055C56.1661 23.3418 55.7689 23.5698 55.3056 23.739C54.8423 23.9008 54.3054 23.9817 53.695 23.9817ZM54.6768 21.6209C55.1769 21.6209 55.6182 21.5216 56.0006 21.3231C56.3904 21.1171 56.6919 20.845 56.9052 20.5067C57.1258 20.1611 57.2361 19.775 57.2361 19.3484V18.0357C57.1331 18.1019 56.9861 18.1644 56.7948 18.2232C56.611 18.282 56.4051 18.3335 56.1771 18.3776C55.9491 18.4218 55.7211 18.4622 55.4931 18.499C55.2651 18.5284 55.0592 18.5578 54.8754 18.5872C54.4709 18.6461 54.1179 18.7417 53.8163 18.8741C53.5148 18.9991 53.2795 19.1719 53.1103 19.3925C52.9485 19.6058 52.8676 19.8743 52.8676 20.1978C52.8676 20.6612 53.0368 21.0142 53.3751 21.2569C53.7134 21.4996 54.1473 21.6209 54.6768 21.6209ZM66.0393 16.6236V23.75H62.6305V11.4167H65.9841V13.612H66.1055C66.3849 12.8839 66.8299 12.3103 67.4403 11.8911C68.0507 11.4719 68.8155 11.2623 69.7348 11.2623C70.588 11.2623 71.3307 11.4498 71.9632 11.8249C72.603 12.2 73.0995 12.7332 73.4525 13.4245C73.8055 14.1158 73.982 14.9432 73.982 15.9066V23.75H70.5732V16.5133C70.5732 15.7632 70.3784 15.1748 69.9886 14.7483C69.5988 14.3144 69.0619 14.0974 68.378 14.0974C67.922 14.0974 67.5175 14.2004 67.1645 14.4063C66.8115 14.6049 66.5357 14.8917 66.3371 15.2667C66.1386 15.6418 66.0393 16.0941 66.0393 16.6236Z" fill="#F5F5F5"/>
</svg>
